<svg xmlns="http://www.w3.org/2000/svg" xmlns:xlink="http://www.w3.org/1999/xlink" width="60" height="60" viewBox="0 0 60 60">
  <defs>
    <linearGradient id="edge-linear-gradient" y1="-0.136" x2="1" y2="-0.136" gradientUnits="objectBoundingBox">
      <stop offset="0" stop-color="#0c59a4"/>
      <stop offset="1" stop-color="#114a8b"/>
    </linearGradient>
    <radialGradient id="edge-radial-gradient" cx="0.552" cy="0.509" r="0.62" gradientTransform="matrix(0.863, 0, 0, -0.95, 0.076, -0.457)" gradientUnits="objectBoundingBox">
      <stop offset="0.72" stop-opacity="0"/>
      <stop offset="0.95" stop-opacity="0.529"/>
      <stop offset="1"/>
    </radialGradient>
    <linearGradient id="edge-linear-gradient-2" x1="0.906" y1="0.521" x2="0.245" y2="-0.063" gradientUnits="objectBoundingBox">
      <stop offset="0" stop-color="#1b9de2"/>
      <stop offset="0.16" stop-color="#1595df"/>
      <stop offset="0.67" stop-color="#0680d7"/>
      <stop offset="1" stop-color="#0078d4"/>
    </linearGradient>
    <radialGradient id="edge-radial-gradient-2" cx="0.418" cy="0.726" r="0.69" gradientTransform="matrix(0.185, -0.989, -0.986, -0.121, -1.622, -1.971)" gradientUnits="objectBoundingBox">
      <stop offset="0.76" stop-opacity="0"/>
      <stop offset="0.95" stop-opacity="0.502"/>
      <stop offset="1"/>
    </radialGradient>
    <radialGradient id="edge-radial-gradient-3" cx="0.101" cy="0.278" r="1.188" gradientTransform="matrix(-0.025, 0.999, 1.417, 0.08, -4.264, 2.626)" gradientUnits="objectBoundingBox">
      <stop offset="0" stop-color="#35c1f1"/>
      <stop offset="0.11" stop-color="#34c1ed"/>
      <stop offset="0.23" stop-color="#2fc2df"/>
      <stop offset="0.31" stop-color="#2bc3d2"/>
      <stop offset="0.67" stop-color="#36c752"/>
    </radialGradient>
    <radialGradient id="edge-radial-gradient-4" cx="0.938" cy="0.454" r="0.571" gradientTransform="matrix(0.187, 0.96, 0.52, -0.228, -0.535, 2.661)" gradientUnits="objectBoundingBox">
      <stop offset="0" stop-color="#66eb6e"/>
      <stop offset="1" stop-color="#66eb6e" stop-opacity="0"/>
    </radialGradient>
  </defs>
  <g id="microsoft-edge-1" transform="translate(0.02 0)">
    <path id="Path_42" data-name="Path 42" d="M103.722,126.2a21.966,21.966,0,0,1-2.47,1.1,23.877,23.877,0,0,1-8.414,1.514c-11.09,0-20.75-7.627-20.75-17.415a7.377,7.377,0,0,1,3.851-6.4c-10.031.422-12.609,10.873-12.609,17,0,17.312,15.958,19.067,19.4,19.067a24.994,24.994,0,0,0,6.328-1.069l.307-.1a30.077,30.077,0,0,0,15.608-12.373.937.937,0,0,0-1.247-1.322Z" transform="translate(-49.589 -81.548)" fill="url(#edge-linear-gradient)"/>
    <path id="Path_43" data-name="Path 43" d="M103.722,126.2a21.966,21.966,0,0,1-2.47,1.1,23.877,23.877,0,0,1-8.414,1.514c-11.09,0-20.75-7.627-20.75-17.415a7.377,7.377,0,0,1,3.851-6.4c-10.031.422-12.609,10.873-12.609,17,0,17.312,15.958,19.067,19.4,19.067a24.994,24.994,0,0,0,6.328-1.069l.307-.1a30.077,30.077,0,0,0,15.608-12.373.937.937,0,0,0-1.247-1.322Z" transform="translate(-49.589 -81.548)" opacity="0.35" fill="url(#edge-radial-gradient)"/>
    <path id="Path_44" data-name="Path 44" d="M29.469,98.351a18.56,18.56,0,0,1-5.329-5A18.914,18.914,0,0,1,31.06,65.231a7.835,7.835,0,0,1,3.642-.937,7.582,7.582,0,0,1,6.021,3.046,7.47,7.47,0,0,1,1.491,4.373c0-.049,5.732-18.653-18.749-18.653-10.288,0-18.749,9.762-18.749,18.327A30.494,30.494,0,0,0,7.554,84.509,30,30,0,0,0,44.2,100.235,17.708,17.708,0,0,1,29.49,98.36Z" transform="translate(-4.71 -41.779)" fill="url(#edge-linear-gradient-2)"/>
    <path id="Path_45" data-name="Path 45" d="M29.469,98.351a18.56,18.56,0,0,1-5.329-5A18.914,18.914,0,0,1,31.06,65.231a7.835,7.835,0,0,1,3.642-.937,7.582,7.582,0,0,1,6.021,3.046,7.47,7.47,0,0,1,1.491,4.373c0-.049,5.732-18.653-18.749-18.653-10.288,0-18.749,9.762-18.749,18.327A30.494,30.494,0,0,0,7.554,84.509,30,30,0,0,0,44.2,100.235,17.708,17.708,0,0,1,29.49,98.36Z" transform="translate(-4.71 -41.779)" opacity="0.41" fill="url(#edge-radial-gradient-2)"/>
    <path id="Path_46" data-name="Path 46" d="M40.31,39.8c-.19.246-.773.586-.773,1.326a2.18,2.18,0,0,0,1.106,1.694c3.37,2.343,9.724,2.034,9.74,2.034A13.96,13.96,0,0,0,57.477,42.9a14.383,14.383,0,0,0,7.132-12.391,20.733,20.733,0,0,0-2.658-10.289c-4.966-9.713-15.686-15.3-27.343-15.3A30,30,0,0,0,4.61,34.5c.113-8.565,8.624-15.48,18.749-15.48a22.677,22.677,0,0,1,9.843,2.36,17.007,17.007,0,0,1,7.23,6.845,15.072,15.072,0,0,1,1.706,6.917A8.464,8.464,0,0,1,40.31,39.8Z" transform="translate(-4.63 -4.92)" fill="url(#edge-radial-gradient-3)"/>
    <path id="Path_47" data-name="Path 47" d="M40.31,39.8c-.19.246-.773.586-.773,1.326a2.18,2.18,0,0,0,1.106,1.694c3.37,2.343,9.724,2.034,9.74,2.034A13.96,13.96,0,0,0,57.477,42.9a14.383,14.383,0,0,0,7.132-12.391,20.733,20.733,0,0,0-2.658-10.289c-4.966-9.713-15.686-15.3-27.343-15.3A30,30,0,0,0,4.61,34.5c.113-8.565,8.624-15.48,18.749-15.48a22.677,22.677,0,0,1,9.843,2.36,17.007,17.007,0,0,1,7.23,6.845,15.072,15.072,0,0,1,1.706,6.917A8.464,8.464,0,0,1,40.31,39.8Z" transform="translate(-4.63 -4.92)" fill="url(#edge-radial-gradient-4)"/>
  </g>
</svg>
