<svg xmlns="http://www.w3.org/2000/svg" xmlns:xlink="http://www.w3.org/1999/xlink" width="58.087" height="60" viewBox="0 0 58.087 60">
  <defs>
    <linearGradient id="firefox-linear-gradient" x1="0.85" y1="0.155" x2="0.019" y2="0.931" gradientUnits="objectBoundingBox">
      <stop offset="0.048" stop-color="#fff44f"/>
      <stop offset="0.111" stop-color="#ffe847"/>
      <stop offset="0.225" stop-color="#ffc830"/>
      <stop offset="0.368" stop-color="#ff980e"/>
      <stop offset="0.401" stop-color="#ff8b16"/>
      <stop offset="0.462" stop-color="#ff672a"/>
      <stop offset="0.534" stop-color="#ff3647"/>
      <stop offset="0.705" stop-color="#e31587"/>
    </linearGradient>
    <radialGradient id="firefox-radial-gradient" cx="0.859" cy="-0.129" r="1.283" gradientTransform="translate(-19.098) scale(0.813 1)" gradientUnits="objectBoundingBox">
      <stop offset="0.129" stop-color="#ffbd4f"/>
      <stop offset="0.186" stop-color="#ffac31"/>
      <stop offset="0.247" stop-color="#ff9d17"/>
      <stop offset="0.283" stop-color="#ff980e"/>
      <stop offset="0.403" stop-color="#ff563b"/>
      <stop offset="0.467" stop-color="#ff3750"/>
      <stop offset="0.71" stop-color="#f5156c"/>
      <stop offset="0.782" stop-color="#eb0878"/>
      <stop offset="0.86" stop-color="#e50080"/>
    </radialGradient>
    <radialGradient id="firefox-radial-gradient-2" cx="0.478" cy="0.395" r="1.283" gradientTransform="translate(-19.169) scale(0.813 1)" gradientUnits="objectBoundingBox">
      <stop offset="0.3" stop-color="#960e18"/>
      <stop offset="0.351" stop-color="#b11927" stop-opacity="0.741"/>
      <stop offset="0.435" stop-color="#db293d" stop-opacity="0.341"/>
      <stop offset="0.497" stop-color="#f5334b" stop-opacity="0.094"/>
      <stop offset="0.53" stop-color="#ff3750" stop-opacity="0"/>
    </radialGradient>
    <radialGradient id="firefox-radial-gradient-3" cx="0.5" cy="-0.3" r="1.855" gradientTransform="translate(299.255) scale(1.698 1)" gradientUnits="objectBoundingBox">
      <stop offset="0.132" stop-color="#fff44f"/>
      <stop offset="0.252" stop-color="#ffdc3e"/>
      <stop offset="0.506" stop-color="#ff9d12"/>
      <stop offset="0.526" stop-color="#ff980e"/>
    </radialGradient>
    <radialGradient id="firefox-radial-gradient-4" cx="0.195" cy="1.101" r="1.019" gradientTransform="translate(22.269) scale(1.096 1)" gradientUnits="objectBoundingBox">
      <stop offset="0.353" stop-color="#3a8ee6"/>
      <stop offset="0.472" stop-color="#5c79f0"/>
      <stop offset="0.669" stop-color="#9059ff"/>
      <stop offset="1" stop-color="#c139e6"/>
    </radialGradient>
    <radialGradient id="firefox-radial-gradient-5" cx="0.582" cy="0.366" r="0.54" gradientTransform="matrix(1.066, -0.235, 0.301, 1.138, 83.149, -23.195)" gradientUnits="objectBoundingBox">
      <stop offset="0.206" stop-color="#9059ff" stop-opacity="0"/>
      <stop offset="0.278" stop-color="#8c4ff3" stop-opacity="0.063"/>
      <stop offset="0.747" stop-color="#7716a8" stop-opacity="0.451"/>
      <stop offset="0.975" stop-color="#6e008b" stop-opacity="0.6"/>
    </radialGradient>
    <radialGradient id="firefox-radial-gradient-6" cx="2.081" cy="-1.039" r="2.922" gradientTransform="translate(3.128)" gradientUnits="objectBoundingBox">
      <stop offset="0" stop-color="#ffe226"/>
      <stop offset="0.121" stop-color="#ffdb27"/>
      <stop offset="0.295" stop-color="#ffc82a"/>
      <stop offset="0.502" stop-color="#ffa930"/>
      <stop offset="0.732" stop-color="#ff7e37"/>
      <stop offset="0.792" stop-color="#ff7139"/>
    </radialGradient>
    <radialGradient id="firefox-radial-gradient-7" cx="0.793" cy="-0.409" r="1.938" gradientTransform="translate(-17.512) scale(0.84 1)" gradientUnits="objectBoundingBox">
      <stop offset="0.113" stop-color="#fff44f"/>
      <stop offset="0.456" stop-color="#ff980e"/>
      <stop offset="0.622" stop-color="#ff5634"/>
      <stop offset="0.716" stop-color="#ff3647"/>
      <stop offset="0.904" stop-color="#e31587"/>
    </radialGradient>
    <radialGradient id="firefox-radial-gradient-8" cx="0.063" cy="-0.103" r="1.651" gradientTransform="matrix(0.222, 0.994, -1.378, 0.069, -474.401, 168.295)" gradientUnits="objectBoundingBox">
      <stop offset="0" stop-color="#fff44f"/>
      <stop offset="0.06" stop-color="#ffe847"/>
      <stop offset="0.168" stop-color="#ffc830"/>
      <stop offset="0.304" stop-color="#ff980e"/>
      <stop offset="0.356" stop-color="#ff8b16"/>
      <stop offset="0.455" stop-color="#ff672a"/>
      <stop offset="0.57" stop-color="#ff3647"/>
      <stop offset="0.737" stop-color="#e31587"/>
    </radialGradient>
    <radialGradient id="firefox-radial-gradient-9" cx="0.154" cy="-0.427" r="2.387" gradientTransform="translate(-4.739) scale(0.981 1)" gradientUnits="objectBoundingBox">
      <stop offset="0.137" stop-color="#fff44f"/>
      <stop offset="0.48" stop-color="#ff980e"/>
      <stop offset="0.592" stop-color="#ff5634"/>
      <stop offset="0.655" stop-color="#ff3647"/>
      <stop offset="0.904" stop-color="#e31587"/>
    </radialGradient>
    <radialGradient id="firefox-radial-gradient-10" cx="1.554" cy="-0.446" r="3.128" gradientTransform="translate(-28.779) scale(0.896 1)" gradientUnits="objectBoundingBox">
      <stop offset="0.094" stop-color="#fff44f"/>
      <stop offset="0.231" stop-color="#ffe141"/>
      <stop offset="0.509" stop-color="#ffaf1e"/>
      <stop offset="0.626" stop-color="#ff980e"/>
    </radialGradient>
    <linearGradient id="firefox-linear-gradient-2" x1="0.84" y1="0.151" x2="0.133" y2="0.835" gradientUnits="objectBoundingBox">
      <stop offset="0.167" stop-color="#fff44f" stop-opacity="0.8"/>
      <stop offset="0.266" stop-color="#fff44f" stop-opacity="0.635"/>
      <stop offset="0.489" stop-color="#fff44f" stop-opacity="0.216"/>
      <stop offset="0.6" stop-color="#fff44f" stop-opacity="0"/>
    </linearGradient>
  </defs>
  <g id="Firefox_logo__2019" data-name="Firefox_logo,_2019" transform="translate(-5)">
    <path id="path980" d="M60.984,20.128c-1.263-3.04-3.826-6.323-5.834-7.36A30.212,30.212,0,0,1,58.1,21.594l.005.049c-3.288-8.2-8.863-11.5-13.417-18.7-.23-.364-.461-.729-.685-1.113-.128-.22-.231-.418-.32-.6A5.291,5.291,0,0,1,43.245.079.075.075,0,0,0,43.179,0a.1.1,0,0,0-.055,0s-.01.007-.014.008l-.021.011L43.1,0a21.223,21.223,0,0,0-10.01,16.154,14.546,14.546,0,0,0-8,3.084,8.693,8.693,0,0,0-.75-.569,13.481,13.481,0,0,1-.082-7.108,21.537,21.537,0,0,0-7,5.41h-.014c-1.152-1.461-1.071-6.278-1.005-7.284a5.2,5.2,0,0,0-.971.515,21.177,21.177,0,0,0-2.842,2.435A25.394,25.394,0,0,0,9.705,15.9v0a24.559,24.559,0,0,0-3.9,8.811l-.039.192c-.055.256-.252,1.537-.286,1.816a.613.613,0,0,1-.007.064A27.714,27.714,0,0,0,5,30.793v.15a29.081,29.081,0,0,0,57.738,4.917c.049-.375.089-.747.132-1.125a29.9,29.9,0,0,0-1.886-14.607ZM27.468,42.89c.136.065.263.136.4.2l.02.013Q27.68,43,27.468,42.89ZM34.129,25.352ZM58.1,21.65v-.028l.005.031Z" transform="translate(0 0)" fill="url(#firefox-linear-gradient)"/>
    <path id="path982" d="M60.984,24.377c-1.263-3.04-3.826-6.323-5.834-7.36A30.212,30.212,0,0,1,58.1,25.843v.028l.005.031a26.335,26.335,0,0,1-.9,19.626c-3.333,7.151-11.4,14.481-24.027,14.124C19.524,59.266,7.508,49.141,5.262,35.881c-.409-2.091,0-3.151.206-4.851A21.665,21.665,0,0,0,5,35.043v.15A29.081,29.081,0,0,0,62.738,40.11c.049-.375.089-.747.132-1.125a29.9,29.9,0,0,0-1.886-14.607Z" transform="translate(0 -4.249)" fill="url(#firefox-radial-gradient)"/>
    <path id="path984" d="M60.984,24.377c-1.263-3.04-3.826-6.323-5.834-7.36A30.212,30.212,0,0,1,58.1,25.843v.028l.005.031a26.335,26.335,0,0,1-.9,19.626c-3.333,7.151-11.4,14.481-24.027,14.124C19.524,59.266,7.508,49.141,5.262,35.881c-.409-2.091,0-3.151.206-4.851A21.665,21.665,0,0,0,5,35.043v.15A29.081,29.081,0,0,0,62.738,40.11c.049-.375.089-.747.132-1.125a29.9,29.9,0,0,0-1.886-14.607Z" transform="translate(0 -4.249)" fill="url(#firefox-radial-gradient-2)"/>
    <path id="path986" d="M56.2,23.548c.063.044.122.089.181.133a15.831,15.831,0,0,0-2.7-3.523C44.643,11.118,51.312.558,52.437.021L52.448,0a21.223,21.223,0,0,0-10.01,16.154c.339-.023.675-.052,1.022-.052A14.676,14.676,0,0,1,56.2,23.548Z" transform="translate(-9.349 -0.001)" fill="url(#firefox-radial-gradient-3)"/>
    <path id="path988" d="M39.462,30.712c-.048.723-2.6,3.218-3.5,3.218-8.269,0-9.611,5-9.611,5A12.285,12.285,0,0,0,33.2,48.449c.162.084.326.16.491.234q.427.189.854.35a12.931,12.931,0,0,0,3.784.73c14.493.68,17.3-17.332,6.842-22.558a10.039,10.039,0,0,1,7.011,1.7,14.676,14.676,0,0,0-12.741-7.441c-.345,0-.683.029-1.022.052a14.546,14.546,0,0,0-8,3.084c.443.375.944.876,2,1.916,1.973,1.944,7.034,3.958,7.045,4.194Z" transform="translate(-5.332 -5.36)" fill="url(#firefox-radial-gradient-4)"/>
    <path id="path990" d="M39.462,30.712c-.048.723-2.6,3.218-3.5,3.218-8.269,0-9.611,5-9.611,5A12.285,12.285,0,0,0,33.2,48.449c.162.084.326.16.491.234q.427.189.854.35a12.931,12.931,0,0,0,3.784.73c14.493.68,17.3-17.332,6.842-22.558a10.039,10.039,0,0,1,7.011,1.7,14.676,14.676,0,0,0-12.741-7.441c-.345,0-.683.029-1.022.052a14.546,14.546,0,0,0-8,3.084c.443.375.944.876,2,1.916,1.973,1.944,7.034,3.958,7.045,4.194Z" transform="translate(-5.332 -5.36)" fill="url(#firefox-radial-gradient-5)"/>
    <path id="path992" d="M27.808,22.124c.236.15.43.281.6.4a13.481,13.481,0,0,1-.082-7.108,21.537,21.537,0,0,0-7,5.41c.142,0,4.36-.08,6.481,1.3Z" transform="translate(-4.077 -3.849)" fill="url(#firefox-radial-gradient-6)"/>
    <path id="path994" d="M5.307,34.859C7.551,48.12,19.569,58.245,33.213,58.631c12.627.357,20.695-6.973,24.027-14.124a26.335,26.335,0,0,0,.9-19.626v-.028c0-.022,0-.035,0-.028l.005.049c1.032,6.735-2.394,13.261-7.75,17.673l-.017.038c-10.435,8.5-20.421,5.128-22.443,3.751q-.212-.1-.423-.211c-6.084-2.908-8.6-8.451-8.059-13.205a7.468,7.468,0,0,1-6.888-4.333,10.968,10.968,0,0,1,10.691-.429,14.481,14.481,0,0,0,10.918.429c-.011-.236-5.072-2.251-7.045-4.194-1.054-1.039-1.555-1.54-2-1.916a8.7,8.7,0,0,0-.75-.569c-.173-.118-.367-.245-.6-.4-2.121-1.379-6.339-1.3-6.479-1.3h-.014c-1.152-1.461-1.071-6.278-1.005-7.284a5.2,5.2,0,0,0-.971.515,21.177,21.177,0,0,0-2.842,2.435,25.393,25.393,0,0,0-2.73,3.254v0a24.559,24.559,0,0,0-3.9,8.811C5.831,28,4.8,32.517,5.307,34.859Z" transform="translate(-0.041 -3.228)" fill="url(#firefox-radial-gradient-7)"/>
    <path id="path996" d="M55.871,20.157a15.831,15.831,0,0,1,2.7,3.526c.16.121.309.241.436.357,6.593,6.077,3.138,14.668,2.881,15.28,5.356-4.412,8.778-10.938,7.75-17.673-3.289-8.2-8.865-11.506-13.418-18.7-.23-.364-.461-.729-.685-1.113-.128-.22-.231-.418-.32-.6A5.291,5.291,0,0,1,54.782.079.075.075,0,0,0,54.716,0a.1.1,0,0,0-.055,0s-.01.007-.014.008l-.021.011C53.5.557,46.832,11.117,55.871,20.157Z" transform="translate(-11.537)" fill="url(#firefox-radial-gradient-8)"/>
    <path id="path998" d="M55.077,31.278c-.127-.116-.276-.236-.436-.357-.059-.044-.118-.089-.181-.133a10.039,10.039,0,0,0-7.011-1.7c10.459,5.23,7.653,23.238-6.842,22.558a12.931,12.931,0,0,1-3.784-.73q-.427-.16-.854-.35c-.164-.075-.329-.15-.491-.234l.02.013c2.021,1.38,12,4.751,22.443-3.751l.017-.038c.26-.608,3.715-9.2-2.881-15.276Z" transform="translate(-7.611 -7.242)" fill="url(#firefox-radial-gradient-9)"/>
    <path id="path1000" d="M23.525,41.471s1.342-5,9.611-5c.894,0,3.451-2.495,3.5-3.218a14.481,14.481,0,0,1-10.918-.429,10.968,10.968,0,0,0-10.691.429,7.468,7.468,0,0,0,6.888,4.333c-.539,4.755,1.975,10.3,8.059,13.205.136.065.263.136.4.2a12.276,12.276,0,0,1-6.849-9.516Z" transform="translate(-2.503 -7.9)" fill="url(#firefox-radial-gradient-10)"/>
    <path id="path1002" d="M60.984,20.128c-1.263-3.04-3.826-6.323-5.834-7.36A30.212,30.212,0,0,1,58.1,21.594l.005.049c-3.288-8.2-8.863-11.5-13.417-18.7-.23-.364-.461-.729-.685-1.113-.128-.22-.231-.418-.32-.6A5.292,5.292,0,0,1,43.245.079.075.075,0,0,0,43.179,0a.1.1,0,0,0-.055,0s-.01.007-.014.008l-.021.011L43.1,0a21.223,21.223,0,0,0-10.01,16.154c.339-.023.675-.052,1.022-.052a14.676,14.676,0,0,1,12.741,7.441,10.039,10.039,0,0,0-7.011-1.7C50.3,27.074,47.494,45.082,33,44.4a12.931,12.931,0,0,1-3.784-.73q-.427-.16-.854-.35c-.164-.075-.329-.15-.491-.234l.02.013q-.212-.1-.423-.211c.136.065.263.136.4.2a12.278,12.278,0,0,1-6.849-9.517s1.342-5,9.611-5c.894,0,3.451-2.495,3.5-3.218-.011-.236-5.072-2.251-7.045-4.194-1.054-1.039-1.555-1.54-2-1.915a8.694,8.694,0,0,0-.75-.569,13.481,13.481,0,0,1-.082-7.108,21.537,21.537,0,0,0-7,5.41h-.014c-1.152-1.461-1.071-6.278-1.005-7.284a5.2,5.2,0,0,0-.971.515,21.177,21.177,0,0,0-2.842,2.435A25.394,25.394,0,0,0,9.705,15.9v0a24.559,24.559,0,0,0-3.9,8.811l-.039.192c-.055.256-.3,1.555-.335,1.834h0A33.834,33.834,0,0,0,5,30.793v.15a29.081,29.081,0,0,0,57.738,4.917c.049-.375.089-.747.132-1.125a29.9,29.9,0,0,0-1.886-14.607ZM58.1,21.622l.005.031Z" transform="translate(0 0)" fill="url(#firefox-linear-gradient-2)"/>
  </g>
</svg>
