<svg xmlns="http://www.w3.org/2000/svg" xmlns:xlink="http://www.w3.org/1999/xlink" width="59.811" height="60.047" viewBox="0 0 59.811 60.047">
  <defs>
    <linearGradient id="safari-linear-gradient" x1="1.474" y1="0.909" x2="1.474" y2="-1.935" gradientUnits="objectBoundingBox">
      <stop offset="0" stop-color="#bdbdbd"/>
      <stop offset="1" stop-color="#fff"/>
    </linearGradient>
    <radialGradient id="safari-radial-gradient" cx="0.502" cy="0.427" r="0.543" gradientUnits="objectBoundingBox">
      <stop offset="0" stop-color="#06c2e7"/>
      <stop offset="0.25" stop-color="#0db8ec"/>
      <stop offset="0.5" stop-color="#12aef1"/>
      <stop offset="0.75" stop-color="#1f86f9"/>
      <stop offset="1" stop-color="#107ddd"/>
    </radialGradient>
  </defs>
  <g id="layer1" transform="translate(-320.597 -180.605)">
    <g id="g2858" transform="translate(320.643 180.652)">
      <path id="path2226" d="M167.205,47.064c0,15.3-12.878,27.7-28.764,27.7s-28.764-12.4-28.764-27.7,12.878-27.7,28.764-27.7,28.764,12.4,28.764,27.7Z" transform="translate(-108.581 -14.761)" opacity="0.53"/>
      <path id="path826" d="M380.361,210.51A29.859,29.859,0,1,1,350.5,180.652a29.859,29.859,0,0,1,29.859,29.859Z" transform="translate(-320.643 -180.652)" stroke="#cdcdcd" stroke-linecap="round" stroke-linejoin="round" stroke-width="0.093" fill="url(#safari-linear-gradient)"/>
      <path id="circle828" d="M378.136,210.625a27.519,27.519,0,1,1-27.519-27.519A27.519,27.519,0,0,1,378.136,210.625Z" transform="translate(-320.758 -180.766)" fill="url(#safari-radial-gradient)"/>
      <path id="rect830" d="M350.689,184.612a.4.4,0,0,0-.4.4v4.628a.4.4,0,0,0,.8,0v-4.628A.4.4,0,0,0,350.689,184.612Zm-2.625.166a.367.367,0,0,0-.082,0,.4.4,0,0,0-.357.441l.2,1.936a.4.4,0,1,0,.8-.083l-.2-1.936A.4.4,0,0,0,348.064,184.778Zm5.268,0a.4.4,0,0,0-.359.358l-.2,1.936a.4.4,0,0,0,.8.084l.2-1.936a.4.4,0,0,0-.357-.441.422.422,0,0,0-.081,0Zm-7.964.389a.41.41,0,0,0-.081.009.4.4,0,0,0-.309.476l.958,4.527a.4.4,0,0,0,.785-.166l-.958-4.528a.4.4,0,0,0-.395-.318Zm10.66,0a.4.4,0,0,0-.395.318l-.962,4.527a.4.4,0,0,0,.785.167l.962-4.527a.4.4,0,0,0-.309-.476.394.394,0,0,0-.081-.009Zm-13.234.722a.389.389,0,0,0-.158.018.4.4,0,0,0-.258.505l.6,1.851a.4.4,0,1,0,.763-.248l-.6-1.851a.4.4,0,0,0-.347-.276Zm15.792,0a.4.4,0,0,0-.347.276l-.6,1.851a.4.4,0,1,0,.763.248l.6-1.851a.4.4,0,0,0-.416-.524Zm-18.337.93a.4.4,0,0,0-.359.565l1.88,4.229a.4.4,0,0,0,.733-.326l-1.88-4.229A.4.4,0,0,0,340.25,186.825Zm20.91.014a.4.4,0,0,0-.374.238L358.9,191.3a.4.4,0,0,0,.733.327l1.885-4.226a.4.4,0,0,0-.359-.565Zm-23.272,1.236a.4.4,0,0,0-.375.6l.973,1.686a.4.4,0,1,0,.695-.4l-.973-1.686a.4.4,0,0,0-.319-.2Zm25.6,0a.4.4,0,0,0-.319.2l-.974,1.686a.4.4,0,0,0,.7.4l.973-1.686a.4.4,0,0,0-.376-.6Zm-27.895,1.43a.4.4,0,0,0-.311.637L338,193.888a.4.4,0,1,0,.65-.471l-2.718-3.746a.4.4,0,0,0-.338-.166Zm30.217.02a.4.4,0,0,0-.339.165l-2.723,3.742a.4.4,0,0,0,.649.472l2.722-3.742a.4.4,0,0,0-.31-.637Zm-32.267,1.7a.4.4,0,0,0-.319.669l1.3,1.447a.4.4,0,1,0,.6-.537l-1.3-1.447a.4.4,0,0,0-.277-.133Zm34.291,0a.4.4,0,0,0-.277.133l-1.3,1.447a.4.4,0,1,0,.6.537l1.3-1.447a.4.4,0,0,0-.319-.67Zm-36.256,1.885a.4.4,0,0,0-.247.7l3.439,3.1a.4.4,0,0,0,.537-.6l-3.44-3.1a.4.4,0,0,0-.29-.1Zm38.231.014a.4.4,0,0,0-.29.1l-3.442,3.094a.4.4,0,1,0,.536.6l3.442-3.094a.4.4,0,0,0-.247-.7Zm-39.865,2.087a.4.4,0,0,0-.25.726l1.575,1.144a.4.4,0,0,0,.472-.649l-1.575-1.144a.4.4,0,0,0-.222-.077Zm41.5.015a.4.4,0,0,0-.222.077l-1.576,1.143a.4.4,0,1,0,.471.65l1.576-1.143a.4.4,0,0,0-.249-.726Zm-43.024,2.227a.4.4,0,0,0-.172.748l4.008,2.314a.4.4,0,0,0,.4-.695l-4.008-2.314a.4.4,0,0,0-.229-.053Zm44.54,0a.4.4,0,0,0-.229.053l-4.008,2.314a.4.4,0,1,0,.4.695l4.008-2.314a.4.4,0,0,0-.173-.748Zm-45.694,2.389a.4.4,0,0,0-.171.768l1.778.793a.4.4,0,1,0,.327-.733l-1.778-.793A.4.4,0,0,0,327.264,199.843Zm46.857.016a.4.4,0,0,0-.156.035l-1.778.792a.4.4,0,1,0,.326.733l1.778-.792a.4.4,0,0,0-.171-.768Zm-47.886,2.48a.4.4,0,0,0-.09.781l4.4,1.434a.4.4,0,1,0,.249-.763l-4.4-1.434a.4.4,0,0,0-.159-.018Zm48.913.017a.389.389,0,0,0-.158.018l-4.4,1.431a.4.4,0,0,0,.248.763l4.4-1.431a.4.4,0,0,0-.09-.782Zm-49.554,2.6a.4.4,0,0,0-.086.794l1.9.4a.4.4,0,0,0,.167-.785l-1.9-.4a.394.394,0,0,0-.081-.009Zm50.19,0a.5.5,0,0,0-.081.009l-1.9.4a.4.4,0,0,0,.167.785l1.9-.4a.4.4,0,0,0-.086-.794ZM325.109,207.6a.4.4,0,0,0,0,.8l4.6.487a.4.4,0,0,0,.084-.8l-4.6-.487a.41.41,0,0,0-.081,0Zm51.164.035a.363.363,0,0,0-.082,0l-4.6.48a.4.4,0,0,0,.083.8l4.6-.48a.4.4,0,0,0,0-.8ZM325.031,210.3a.4.4,0,0,0,0,.8h1.947a.4.4,0,1,0,0-.8Zm49.368,0a.4.4,0,1,0,0,.8h1.947a.4.4,0,1,0,0-.8Zm-44.612,2.187a.368.368,0,0,0-.081,0l-4.6.48a.4.4,0,0,0,.083.8l4.6-.48a.4.4,0,0,0,0-.8Zm41.8.028a.4.4,0,0,0,0,.8l4.6.487a.4.4,0,0,0,.084-.8l-4.6-.487a.411.411,0,0,0-.082,0Zm-44.095,2.711a.412.412,0,0,0-.081.009l-1.9.4a.4.4,0,0,0,.167.785l1.9-.4a.4.4,0,0,0-.086-.794Zm46.391,0a.4.4,0,0,0-.086.794l1.9.4a.4.4,0,1,0,.167-.785l-1.9-.4a.4.4,0,0,0-.081-.009Zm-43.184,1.58a.389.389,0,0,0-.158.018l-4.4,1.431a.4.4,0,1,0,.248.763l4.4-1.431a.4.4,0,0,0-.09-.782Zm39.974.014a.4.4,0,0,0-.09.781l4.4,1.434a.4.4,0,1,0,.249-.763l-4.4-1.434a.4.4,0,0,0-.159-.018Zm-41.653,3.119a.4.4,0,0,0-.156.035l-1.779.792a.4.4,0,1,0,.326.733l1.779-.792a.4.4,0,0,0-.171-.768Zm43.331.015a.4.4,0,0,0-.171.768l1.778.793a.4.4,0,1,0,.327-.733l-1.778-.793A.4.4,0,0,0,372.351,219.954Zm-39.868.869a.4.4,0,0,0-.229.053l-4.008,2.314a.4.4,0,1,0,.4.695l4.008-2.314a.4.4,0,0,0-.172-.748Zm36.412,0a.4.4,0,0,0-.173.748l4.008,2.314a.4.4,0,1,0,.4-.695l-4.008-2.314A.4.4,0,0,0,368.895,220.823Zm-37.412,3.4a.4.4,0,0,0-.222.077l-1.576,1.143a.4.4,0,1,0,.471.649l1.576-1.143a.4.4,0,0,0-.249-.726Zm38.4.014a.4.4,0,0,0-.25.726l1.575,1.144a.4.4,0,0,0,.472-.649l-1.575-1.144a.4.4,0,0,0-.222-.077Zm-34.833.139a.4.4,0,0,0-.29.1l-3.442,3.094a.4.4,0,1,0,.536.6l3.442-3.094a.4.4,0,0,0-.247-.7Zm31.265.011a.4.4,0,0,0-.247.7l3.439,3.1a.4.4,0,1,0,.537-.6l-3.44-3.1A.4.4,0,0,0,366.316,224.382Zm-28,2.939a.4.4,0,0,0-.339.165l-2.722,3.742a.4.4,0,1,0,.649.472l2.722-3.742a.4.4,0,0,0-.31-.637Zm24.722.017a.4.4,0,0,0-.311.637l2.717,3.746a.4.4,0,1,0,.65-.471l-2.717-3.746a.4.4,0,0,0-.338-.166Zm-28.236.578a.4.4,0,0,0-.277.133l-1.3,1.447a.4.4,0,1,0,.6.537l1.3-1.447a.4.4,0,0,0-.319-.67Zm31.77,0a.4.4,0,0,0-.319.669l1.3,1.447a.4.4,0,0,0,.6-.537l-1.3-1.447a.4.4,0,0,0-.277-.133Zm-24.454,1.6a.4.4,0,0,0-.374.238l-1.886,4.226a.4.4,0,1,0,.733.327l1.886-4.226a.4.4,0,0,0-.359-.565Zm17.115.012a.4.4,0,0,0-.359.564l1.88,4.229a.4.4,0,0,0,.733-.326l-1.88-4.229a.4.4,0,0,0-.374-.238Zm-20.428,1.3a.4.4,0,0,0-.319.2l-.973,1.686a.4.4,0,0,0,.695.4l.973-1.686a.4.4,0,0,0-.376-.6Zm23.767,0a.4.4,0,0,0-.375.6l.973,1.686a.4.4,0,0,0,.695-.4l-.973-1.686a.4.4,0,0,0-.319-.2Zm-16.256.06a.4.4,0,0,0-.395.318l-.962,4.527a.4.4,0,1,0,.785.167l.962-4.527a.4.4,0,0,0-.309-.476.394.394,0,0,0-.081-.009Zm8.731,0a.408.408,0,0,0-.081.009.4.4,0,0,0-.309.475l.958,4.528a.4.4,0,1,0,.785-.166l-.959-4.527a.4.4,0,0,0-.395-.318Zm-4.358.457a.4.4,0,0,0-.4.4v4.628a.4.4,0,1,0,.8,0v-4.628A.4.4,0,0,0,350.689,231.35Zm-7.365,1.5a.4.4,0,0,0-.347.276l-.6,1.851a.4.4,0,1,0,.763.248l.6-1.851a.4.4,0,0,0-.416-.524Zm14.727,0a.391.391,0,0,0-.158.018.4.4,0,0,0-.258.506l.6,1.851a.4.4,0,0,0,.763-.248l-.6-1.851a.4.4,0,0,0-.347-.276Zm-9.88,1.031a.4.4,0,0,0-.36.357l-.2,1.936a.4.4,0,0,0,.8.084l.2-1.936a.4.4,0,0,0-.357-.441A.41.41,0,0,0,348.17,233.877Zm5.021,0a.369.369,0,0,0-.082,0,.4.4,0,0,0-.357.441l.2,1.936a.4.4,0,0,0,.8-.083l-.2-1.936a.4.4,0,0,0-.359-.358Z" transform="translate(-320.83 -180.837)" fill="#f4f2f3"/>
      <path id="path2150" d="M163.146,35.367,141.2,48.121l-13.879,21.85,20.3-15.039Z" transform="translate(-114.483 -21.557)" opacity="0.409"/>
      <g id="g2847" transform="translate(10.685 11.55)">
        <path id="path2096" d="M354.96,214.372l-6.292-6.589,22.32-15.015Z" transform="translate(-332.64 -192.768)" fill="#ff5150"/>
        <path id="path2099" d="M354.173,215.11l-6.292-6.589-16.028,21.6Z" transform="translate(-331.853 -193.506)" fill="#f1f1f1"/>
        <path id="path2112" d="M331.853,229.387l22.32-15.015,16.028-21.6Z" transform="translate(-331.853 -192.768)" opacity="0.243"/>
      </g>
    </g>
  </g>
</svg>
