<svg xmlns="http://www.w3.org/2000/svg" xmlns:xlink="http://www.w3.org/1999/xlink" width="39.449" height="30" viewBox="0 0 39.449 30">
  <defs>
    <linearGradient id="gmail-linear-gradient" y1="0.5" x2="1" y2="0.5" gradientUnits="objectBoundingBox">
      <stop offset="0" stop-opacity="0.102"/>
      <stop offset="1" stop-opacity="0.2"/>
    </linearGradient>
  </defs>
  <g id="New_Logo_Gmail" transform="translate(-0.215)">
    <path id="Path_76" data-name="Path 76" d="M37.177,30.733H2.71A2.469,2.469,0,0,1,.249,28.271V3.371A2.469,2.469,0,0,1,2.71.909H37.177a2.469,2.469,0,0,1,2.462,2.462v24.9a2.447,2.447,0,0,1-2.462,2.462Z" transform="translate(-0.028 -0.768)" fill="#e3e3e3"/>
    <path id="Path_77" data-name="Path 77" d="M29.947,65.687,44.684,53.835l.106-.633L29.6,42.264l-.035,22.9Z" transform="translate(-24.803 -35.722)" fill="#231f20" opacity="0.1"/>
    <path id="Path_78" data-name="Path 78" d="M2.71,35.15A2.447,2.447,0,0,1,.249,32.688V7.753c0-1.372,1.09-1.618,2.462-1.618s2.462.281,2.462,1.618v27.4Z" transform="translate(-0.028 -5.185)" fill="#d54b3d"/>
    <path id="Path_79" data-name="Path 79" d="M2.71,6.487c1.758,0,2.11.528,2.11,1.266V34.8H2.71A2.116,2.116,0,0,1,.6,32.688V7.753c0-.774.352-1.266,2.11-1.266Zm0-.352c-1.372,0-2.462.281-2.462,1.618V32.688A2.447,2.447,0,0,0,2.71,35.15H5.172V7.753c0-1.372-1.09-1.618-2.462-1.618Z" transform="translate(-0.028 -5.185)" fill="#d72b27"/>
    <path id="Path_80" data-name="Path 80" d="M225.39,35.15h-2.462V7.683c0-1.372,1.09-1.547,2.462-1.547s2.462.176,2.462,1.547V32.724a2.439,2.439,0,0,1-2.462,2.427Z" transform="translate(-188.241 -5.185)" fill="#d54b3d"/>
    <path id="Path_81" data-name="Path 81" d="M225.39,6.487c1.583,0,2.11.317,2.11,1.2V32.724a2.116,2.116,0,0,1-2.11,2.11h-2.11V7.683c0-.914.528-1.2,2.11-1.2Zm0-.352c-1.372,0-2.462.176-2.462,1.547v27.5h2.462a2.447,2.447,0,0,0,2.462-2.462V7.683c0-1.372-1.09-1.547-2.462-1.547Z" transform="translate(-188.241 -5.185)" fill="#d72b27"/>
    <path id="Path_82" data-name="Path 82" d="M27.751,45.822,1.58,19.447l1.377.56L21.174,33.125,40.764,18.76V43.395A2.439,2.439,0,0,1,38.3,45.822Z" transform="translate(-1.153 -15.857)" fill="url(#gmail-linear-gradient)"/>
    <path id="Path_83" data-name="Path 83" d="M19.926,18.2,1.322,4.7a2.485,2.485,0,0,1-.6-3.447A2.551,2.551,0,0,1,4.241.725l15.721,11.43L35.788.584a2.446,2.446,0,0,1,3.447.563,2.446,2.446,0,0,1-.563,3.447L19.926,18.2Z" transform="translate(-0.046 -0.092)" fill="#d54b3d"/>
    <path id="Path_84" data-name="Path 84" d="M37.149.352h0a2.149,2.149,0,0,1,1.723.879,2.16,2.16,0,0,1-.457,2.954L19.88,17.691,1.487,4.326A2.147,2.147,0,0,1,.959,1.372,2.215,2.215,0,0,1,2.717.492,2.033,2.033,0,0,1,3.984.914l15.686,11.4.211.141.211-.141L35.883.739A2.33,2.33,0,0,1,37.149.352Zm0-.352a2.422,2.422,0,0,0-1.442.457L19.88,12.028,4.159.6A2.452,2.452,0,0,0,2.682.141a2.531,2.531,0,0,0-2.04,1.02,2.526,2.526,0,0,0,.633,3.447l18.6,13.54L38.591,4.5a2.5,2.5,0,0,0,.563-3.447,2.41,2.41,0,0,0-2-1.055Z" transform="translate(0 0)" fill="#d72b27"/>
  </g>
</svg>
