<svg xmlns="http://www.w3.org/2000/svg" xmlns:xlink="http://www.w3.org/1999/xlink" width="43" height="43" viewBox="0 0 43 43">
  <defs>
    <clipPath id="usa-clip-path">
      <rect id="Rectangle_4" data-name="Rectangle 4" width="43" height="43" rx="4" transform="translate(1947 -313)" fill="#fff"/>
    </clipPath>
  </defs>
  <g id="Mask_Group_1" data-name="Mask Group 1" transform="translate(-1947 313)" clip-path="url(#usa-clip-path)">
    <g id="united-states_1_" data-name="united-states (1)" transform="translate(1938 -320.414)">
      <path id="Path_85" data-name="Path 85" d="M64.5,50.414H1.132A1.132,1.132,0,0,1,0,49.282V8.545A1.132,1.132,0,0,1,1.132,7.414H64.5a1.132,1.132,0,0,1,1.132,1.132V49.282A1.132,1.132,0,0,1,64.5,50.414Z" transform="translate(0 0)" fill="#f5f5f5"/>
      <g id="Group_53" data-name="Group 53" transform="translate(0 7.414)">
        <path id="Path_86" data-name="Path 86" d="M65.631,10.722H0V8.545A1.132,1.132,0,0,1,1.132,7.414H64.5a1.132,1.132,0,0,1,1.132,1.132v2.176Z" transform="translate(0 -7.414)" fill="#ff4b55"/>
        <rect id="Rectangle_44" data-name="Rectangle 44" width="65.631" height="3.308" transform="translate(0 13.231)" fill="#ff4b55"/>
        <rect id="Rectangle_45" data-name="Rectangle 45" width="65.631" height="3.308" transform="translate(0 6.615)" fill="#ff4b55"/>
        <path id="Path_87" data-name="Path 87" d="M65.631,23.724H1.132A1.132,1.132,0,0,1,0,22.593V20.416H65.631Z" transform="translate(0 -0.57)" fill="#ff4b55"/>
        <rect id="Rectangle_46" data-name="Rectangle 46" width="65.631" height="3.308" transform="translate(0 33.078)" fill="#ff4b55"/>
        <path id="Path_88" data-name="Path 88" d="M64.5,36.727H1.132A1.132,1.132,0,0,1,0,35.6V33.419H65.631V35.6A1.132,1.132,0,0,1,64.5,36.727Z" transform="translate(0 6.273)" fill="#ff4b55"/>
        <rect id="Rectangle_47" data-name="Rectangle 47" width="65.631" height="3.308" transform="translate(0 26.462)" fill="#ff4b55"/>
      </g>
      <path id="Path_89" data-name="Path 89" d="M29.421,7.414H1.132A1.132,1.132,0,0,0,0,8.545V29.436a1.132,1.132,0,0,0,1.132,1.132H29.421a1.132,1.132,0,0,0,1.132-1.132V8.545A1.132,1.132,0,0,0,29.421,7.414Z" transform="translate(0 0)" fill="#41479b"/>
      <g id="Group_54" data-name="Group 54" transform="translate(1.827 9.938)">
        <path id="Path_90" data-name="Path 90" d="M2.548,9.141l.25.751L3.59,9.9a.107.107,0,0,1,.063.193l-.637.47.239.755a.107.107,0,0,1-.164.119l-.644-.46-.644.46a.107.107,0,0,1-.164-.119l.239-.755-.637-.47A.107.107,0,0,1,1.3,9.9l.792-.006.25-.751A.107.107,0,0,1,2.548,9.141Z" transform="translate(-1.197 -9.068)" fill="#f5f5f5"/>
        <path id="Path_91" data-name="Path 91" d="M2.548,11.715l.25.751.792.006a.107.107,0,0,1,.063.193l-.637.47.239.755a.107.107,0,0,1-.164.119l-.644-.46-.644.46a.107.107,0,0,1-.164-.119l.239-.755-.637-.47a.107.107,0,0,1,.063-.193l.792-.006.25-.751A.107.107,0,0,1,2.548,11.715Z" transform="translate(-1.197 -7.713)" fill="#f5f5f5"/>
        <path id="Path_92" data-name="Path 92" d="M2.548,14.29l.25.751.792.006a.107.107,0,0,1,.063.193l-.637.47.239.755a.107.107,0,0,1-.164.119l-.644-.46-.644.46a.107.107,0,0,1-.164-.119l.239-.755-.637-.47a.107.107,0,0,1,.063-.193l.792-.006.25-.751A.107.107,0,0,1,2.548,14.29Z" transform="translate(-1.197 -6.358)" fill="#f5f5f5"/>
        <path id="Path_93" data-name="Path 93" d="M2.548,16.864l.25.751.792.006a.107.107,0,0,1,.063.193l-.637.47.239.755a.107.107,0,0,1-.164.119l-.644-.46-.644.46a.107.107,0,0,1-.164-.119l.239-.755-.637-.47a.107.107,0,0,1,.063-.193l.792-.006.25-.751A.107.107,0,0,1,2.548,16.864Z" transform="translate(-1.197 -5.003)" fill="#f5f5f5"/>
        <path id="Path_94" data-name="Path 94" d="M2.548,19.439l.25.751.792.006a.107.107,0,0,1,.063.193l-.637.47.239.755a.107.107,0,0,1-.164.119l-.644-.46-.644.46a.107.107,0,0,1-.164-.119l.239-.755-.637-.47A.107.107,0,0,1,1.3,20.2l.792-.006.25-.751A.107.107,0,0,1,2.548,19.439Z" transform="translate(-1.197 -3.648)" fill="#f5f5f5"/>
        <path id="Path_95" data-name="Path 95" d="M4.546,10.4l.25.751.792.006a.107.107,0,0,1,.063.193l-.637.47.239.755a.107.107,0,0,1-.164.119l-.644-.46L3.8,12.7a.107.107,0,0,1-.164-.119l.239-.755-.637-.47A.107.107,0,0,1,3.3,11.16l.792-.006.25-.751A.107.107,0,0,1,4.546,10.4Z" transform="translate(-0.145 -8.403)" fill="#f5f5f5"/>
        <path id="Path_96" data-name="Path 96" d="M4.546,12.977l.25.751.792.006a.107.107,0,0,1,.063.193l-.637.47.239.755a.107.107,0,0,1-.164.119l-.644-.46-.644.46a.107.107,0,0,1-.164-.119l.239-.755-.637-.47a.107.107,0,0,1,.063-.193l.792-.006.25-.751A.107.107,0,0,1,4.546,12.977Z" transform="translate(-0.145 -7.048)" fill="#f5f5f5"/>
        <path id="Path_97" data-name="Path 97" d="M4.546,15.552l.25.751.792.006a.107.107,0,0,1,.063.193l-.637.47.239.755a.107.107,0,0,1-.164.119l-.644-.46-.644.46a.107.107,0,0,1-.164-.119l.239-.755-.637-.47a.107.107,0,0,1,.063-.193l.792-.006.25-.751A.107.107,0,0,1,4.546,15.552Z" transform="translate(-0.145 -5.693)" fill="#f5f5f5"/>
        <path id="Path_98" data-name="Path 98" d="M4.546,18.126l.25.751.792.006a.107.107,0,0,1,.063.193l-.637.47.239.755a.107.107,0,0,1-.164.119l-.644-.46-.644.46a.107.107,0,0,1-.164-.119l.239-.755-.637-.47a.107.107,0,0,1,.063-.193l.792-.006.25-.751A.107.107,0,0,1,4.546,18.126Z" transform="translate(-0.145 -4.338)" fill="#f5f5f5"/>
        <path id="Path_99" data-name="Path 99" d="M6.544,9.141l.25.751.792.006a.107.107,0,0,1,.063.193l-.637.47.239.755a.107.107,0,0,1-.164.119l-.644-.46-.644.46a.107.107,0,0,1-.164-.119l.239-.755-.637-.47A.107.107,0,0,1,5.3,9.9l.792-.006.25-.751A.107.107,0,0,1,6.544,9.141Z" transform="translate(0.906 -9.068)" fill="#f5f5f5"/>
        <path id="Path_100" data-name="Path 100" d="M6.544,11.715l.25.751.792.006a.107.107,0,0,1,.063.193l-.637.47.239.755a.107.107,0,0,1-.164.119l-.644-.46-.644.46a.107.107,0,0,1-.164-.119l.239-.755-.637-.47a.107.107,0,0,1,.063-.193l.792-.006.25-.751A.107.107,0,0,1,6.544,11.715Z" transform="translate(0.906 -7.713)" fill="#f5f5f5"/>
        <path id="Path_101" data-name="Path 101" d="M6.544,14.29l.25.751.792.006a.107.107,0,0,1,.063.193l-.637.47.239.755a.107.107,0,0,1-.164.119l-.644-.46-.644.46a.107.107,0,0,1-.164-.119l.239-.755-.637-.47a.107.107,0,0,1,.063-.193l.792-.006.25-.751A.107.107,0,0,1,6.544,14.29Z" transform="translate(0.906 -6.358)" fill="#f5f5f5"/>
        <path id="Path_102" data-name="Path 102" d="M6.544,16.864l.25.751.792.006a.107.107,0,0,1,.063.193l-.637.47.239.755a.107.107,0,0,1-.164.119l-.644-.46-.644.46a.107.107,0,0,1-.164-.119l.239-.755-.637-.47a.107.107,0,0,1,.063-.193l.792-.006.25-.751A.107.107,0,0,1,6.544,16.864Z" transform="translate(0.906 -5.003)" fill="#f5f5f5"/>
        <path id="Path_103" data-name="Path 103" d="M6.544,19.439l.25.751.792.006a.107.107,0,0,1,.063.193l-.637.47.239.755a.107.107,0,0,1-.164.119l-.644-.46-.644.46a.107.107,0,0,1-.164-.119l.239-.755-.637-.47A.107.107,0,0,1,5.3,20.2l.792-.006.25-.751A.107.107,0,0,1,6.544,19.439Z" transform="translate(0.906 -3.648)" fill="#f5f5f5"/>
        <path id="Path_104" data-name="Path 104" d="M8.542,10.4l.25.751.792.006a.107.107,0,0,1,.063.193l-.637.47.239.755a.107.107,0,0,1-.164.119l-.644-.46L7.8,12.7a.107.107,0,0,1-.164-.119l.239-.755-.637-.47A.107.107,0,0,1,7.3,11.16l.792-.006.25-.751A.107.107,0,0,1,8.542,10.4Z" transform="translate(1.958 -8.403)" fill="#f5f5f5"/>
        <path id="Path_105" data-name="Path 105" d="M8.542,12.977l.25.751.792.006a.107.107,0,0,1,.063.193l-.637.47.239.755a.107.107,0,0,1-.164.119l-.644-.46-.644.46a.107.107,0,0,1-.164-.119l.239-.755-.637-.47a.107.107,0,0,1,.063-.193l.792-.006.25-.751A.107.107,0,0,1,8.542,12.977Z" transform="translate(1.958 -7.048)" fill="#f5f5f5"/>
        <path id="Path_106" data-name="Path 106" d="M8.542,15.552l.25.751.792.006a.107.107,0,0,1,.063.193l-.637.47.239.755a.107.107,0,0,1-.164.119l-.644-.46-.644.46a.107.107,0,0,1-.164-.119l.239-.755-.637-.47a.107.107,0,0,1,.063-.193L8.09,16.3l.25-.751A.107.107,0,0,1,8.542,15.552Z" transform="translate(1.958 -5.693)" fill="#f5f5f5"/>
        <path id="Path_107" data-name="Path 107" d="M8.542,18.126l.25.751.792.006a.107.107,0,0,1,.063.193l-.637.47.239.755a.107.107,0,0,1-.164.119l-.644-.46-.644.46a.107.107,0,0,1-.164-.119l.239-.755-.637-.47a.107.107,0,0,1,.063-.193l.792-.006.25-.751A.107.107,0,0,1,8.542,18.126Z" transform="translate(1.958 -4.338)" fill="#f5f5f5"/>
        <path id="Path_108" data-name="Path 108" d="M10.541,9.141l.25.751.792.006a.107.107,0,0,1,.063.193l-.637.47.239.755a.107.107,0,0,1-.164.119l-.644-.46-.644.46a.107.107,0,0,1-.164-.119l.239-.755-.637-.47A.107.107,0,0,1,9.3,9.9l.792-.006.25-.751A.107.107,0,0,1,10.541,9.141Z" transform="translate(3.01 -9.068)" fill="#f5f5f5"/>
        <path id="Path_109" data-name="Path 109" d="M10.541,11.715l.25.751.792.006a.107.107,0,0,1,.063.193l-.637.47.239.755a.107.107,0,0,1-.164.119l-.644-.46-.644.46a.107.107,0,0,1-.164-.119l.239-.755-.637-.47a.107.107,0,0,1,.063-.193l.792-.006.25-.751A.107.107,0,0,1,10.541,11.715Z" transform="translate(3.01 -7.713)" fill="#f5f5f5"/>
        <path id="Path_110" data-name="Path 110" d="M10.541,14.29l.25.751.792.006a.107.107,0,0,1,.063.193l-.637.47.239.755a.107.107,0,0,1-.164.119l-.644-.46-.644.46a.107.107,0,0,1-.164-.119l.239-.755-.637-.47a.107.107,0,0,1,.063-.193l.792-.006.25-.751A.107.107,0,0,1,10.541,14.29Z" transform="translate(3.01 -6.358)" fill="#f5f5f5"/>
        <path id="Path_111" data-name="Path 111" d="M10.541,16.864l.25.751.792.006a.107.107,0,0,1,.063.193l-.637.47.239.755a.107.107,0,0,1-.164.119l-.644-.46-.644.46a.107.107,0,0,1-.164-.119l.239-.755-.637-.47a.107.107,0,0,1,.063-.193l.792-.006.25-.751A.107.107,0,0,1,10.541,16.864Z" transform="translate(3.01 -5.003)" fill="#f5f5f5"/>
        <path id="Path_112" data-name="Path 112" d="M10.541,19.439l.25.751.792.006a.107.107,0,0,1,.063.193l-.637.47.239.755a.107.107,0,0,1-.164.119l-.644-.46-.644.46a.107.107,0,0,1-.164-.119l.239-.755-.637-.47A.107.107,0,0,1,9.3,20.2l.792-.006.25-.751A.107.107,0,0,1,10.541,19.439Z" transform="translate(3.01 -3.648)" fill="#f5f5f5"/>
        <path id="Path_113" data-name="Path 113" d="M12.539,10.4l.25.751.792.006a.107.107,0,0,1,.063.193l-.637.47.239.755a.107.107,0,0,1-.164.119l-.644-.46-.644.46a.107.107,0,0,1-.164-.119l.239-.755-.637-.47a.107.107,0,0,1,.063-.193l.792-.006.25-.751A.107.107,0,0,1,12.539,10.4Z" transform="translate(4.062 -8.403)" fill="#f5f5f5"/>
        <path id="Path_114" data-name="Path 114" d="M12.539,12.977l.25.751.792.006a.107.107,0,0,1,.063.193l-.637.47.239.755a.107.107,0,0,1-.164.119l-.644-.46-.644.46a.107.107,0,0,1-.164-.119l.239-.755-.637-.47a.107.107,0,0,1,.063-.193l.792-.006.25-.751A.107.107,0,0,1,12.539,12.977Z" transform="translate(4.062 -7.048)" fill="#f5f5f5"/>
        <path id="Path_115" data-name="Path 115" d="M12.539,15.552l.25.751.792.006a.107.107,0,0,1,.063.193l-.637.47.239.755a.107.107,0,0,1-.164.119l-.644-.46-.644.46a.107.107,0,0,1-.164-.119l.239-.755-.637-.47a.107.107,0,0,1,.063-.193l.792-.006.25-.751A.107.107,0,0,1,12.539,15.552Z" transform="translate(4.062 -5.693)" fill="#f5f5f5"/>
        <path id="Path_116" data-name="Path 116" d="M12.539,18.126l.25.751.792.006a.107.107,0,0,1,.063.193l-.637.47.239.755a.107.107,0,0,1-.164.119l-.644-.46-.644.46a.107.107,0,0,1-.164-.119l.239-.755-.637-.47a.107.107,0,0,1,.063-.193l.792-.006.25-.751A.107.107,0,0,1,12.539,18.126Z" transform="translate(4.062 -4.338)" fill="#f5f5f5"/>
        <path id="Path_117" data-name="Path 117" d="M14.537,9.141l.25.751.792.006a.107.107,0,0,1,.063.193l-.637.47.239.755a.107.107,0,0,1-.164.119l-.644-.46-.644.46a.107.107,0,0,1-.164-.119l.239-.755-.637-.47a.107.107,0,0,1,.063-.193l.792-.006.25-.751A.107.107,0,0,1,14.537,9.141Z" transform="translate(5.113 -9.068)" fill="#f5f5f5"/>
        <path id="Path_118" data-name="Path 118" d="M14.537,11.715l.25.751.792.006a.107.107,0,0,1,.063.193l-.637.47.239.755a.107.107,0,0,1-.164.119l-.644-.46-.644.46a.107.107,0,0,1-.164-.119l.239-.755-.637-.47a.107.107,0,0,1,.063-.193l.792-.006.25-.751A.107.107,0,0,1,14.537,11.715Z" transform="translate(5.113 -7.713)" fill="#f5f5f5"/>
        <path id="Path_119" data-name="Path 119" d="M14.537,14.29l.25.751.792.006a.107.107,0,0,1,.063.193l-.637.47.239.755a.107.107,0,0,1-.164.119l-.644-.46-.644.46a.107.107,0,0,1-.164-.119l.239-.755-.637-.47a.107.107,0,0,1,.063-.193l.792-.006.25-.751A.107.107,0,0,1,14.537,14.29Z" transform="translate(5.113 -6.358)" fill="#f5f5f5"/>
        <path id="Path_120" data-name="Path 120" d="M14.537,16.864l.25.751.792.006a.107.107,0,0,1,.063.193l-.637.47.239.755a.107.107,0,0,1-.164.119l-.644-.46-.644.46a.107.107,0,0,1-.164-.119l.239-.755-.637-.47a.107.107,0,0,1,.063-.193l.792-.006.25-.751A.107.107,0,0,1,14.537,16.864Z" transform="translate(5.113 -5.003)" fill="#f5f5f5"/>
        <path id="Path_121" data-name="Path 121" d="M14.537,19.439l.25.751.792.006a.107.107,0,0,1,.063.193l-.637.47.239.755a.107.107,0,0,1-.164.119l-.644-.46-.644.46a.107.107,0,0,1-.164-.119l.239-.755-.637-.47a.107.107,0,0,1,.063-.193l.792-.006.25-.751A.107.107,0,0,1,14.537,19.439Z" transform="translate(5.113 -3.648)" fill="#f5f5f5"/>
        <path id="Path_122" data-name="Path 122" d="M16.535,10.4l.25.751.792.006a.107.107,0,0,1,.063.193l-.637.47.239.755a.107.107,0,0,1-.164.119l-.644-.46-.644.46a.107.107,0,0,1-.164-.119l.239-.755-.637-.47a.107.107,0,0,1,.063-.193l.792-.006.25-.751A.107.107,0,0,1,16.535,10.4Z" transform="translate(6.165 -8.403)" fill="#f5f5f5"/>
        <path id="Path_123" data-name="Path 123" d="M16.535,12.977l.25.751.792.006a.107.107,0,0,1,.063.193L17,14.4l.239.755a.107.107,0,0,1-.164.119l-.644-.46-.644.46a.107.107,0,0,1-.164-.119l.239-.755-.637-.47a.107.107,0,0,1,.063-.193l.792-.006.25-.751A.107.107,0,0,1,16.535,12.977Z" transform="translate(6.165 -7.048)" fill="#f5f5f5"/>
        <path id="Path_124" data-name="Path 124" d="M16.535,15.552l.25.751.792.006a.107.107,0,0,1,.063.193l-.637.47.239.755a.107.107,0,0,1-.164.119l-.644-.46-.644.46a.107.107,0,0,1-.164-.119l.239-.755-.637-.47a.107.107,0,0,1,.063-.193l.792-.006.25-.751A.107.107,0,0,1,16.535,15.552Z" transform="translate(6.165 -5.693)" fill="#f5f5f5"/>
        <path id="Path_125" data-name="Path 125" d="M16.535,18.126l.25.751.792.006a.107.107,0,0,1,.063.193l-.637.47.239.755a.107.107,0,0,1-.164.119l-.644-.46-.644.46a.107.107,0,0,1-.164-.119l.239-.755-.637-.47a.107.107,0,0,1,.063-.193l.792-.006.25-.751A.107.107,0,0,1,16.535,18.126Z" transform="translate(6.165 -4.338)" fill="#f5f5f5"/>
        <path id="Path_126" data-name="Path 126" d="M18.534,9.141l.25.751.792.006a.107.107,0,0,1,.063.193l-.637.47.239.755a.107.107,0,0,1-.164.119l-.644-.46-.644.46a.107.107,0,0,1-.164-.119l.239-.755-.637-.47a.107.107,0,0,1,.063-.193l.792-.006.25-.751A.107.107,0,0,1,18.534,9.141Z" transform="translate(7.217 -9.068)" fill="#f5f5f5"/>
        <path id="Path_127" data-name="Path 127" d="M18.534,11.715l.25.751.792.006a.107.107,0,0,1,.063.193l-.637.47.239.755a.107.107,0,0,1-.164.119l-.644-.46-.644.46a.107.107,0,0,1-.164-.119l.239-.755-.637-.47a.107.107,0,0,1,.063-.193l.792-.006.25-.751A.107.107,0,0,1,18.534,11.715Z" transform="translate(7.217 -7.713)" fill="#f5f5f5"/>
        <path id="Path_128" data-name="Path 128" d="M18.534,14.29l.25.751.792.006a.107.107,0,0,1,.063.193L19,15.71l.239.755a.107.107,0,0,1-.164.119l-.644-.46-.644.46a.107.107,0,0,1-.164-.119l.239-.755-.637-.47a.107.107,0,0,1,.063-.193l.792-.006.25-.751A.107.107,0,0,1,18.534,14.29Z" transform="translate(7.217 -6.358)" fill="#f5f5f5"/>
        <path id="Path_129" data-name="Path 129" d="M18.534,16.864l.25.751.792.006a.107.107,0,0,1,.063.193l-.637.47.239.755a.107.107,0,0,1-.164.119l-.644-.46-.644.46a.107.107,0,0,1-.164-.119l.239-.755-.637-.47a.107.107,0,0,1,.063-.193l.792-.006.25-.751A.107.107,0,0,1,18.534,16.864Z" transform="translate(7.217 -5.003)" fill="#f5f5f5"/>
        <path id="Path_130" data-name="Path 130" d="M18.534,19.439l.25.751.792.006a.107.107,0,0,1,.063.193l-.637.47.239.755a.107.107,0,0,1-.164.119l-.644-.46-.644.46a.107.107,0,0,1-.164-.119l.239-.755-.637-.47a.107.107,0,0,1,.063-.193l.792-.006.25-.751A.107.107,0,0,1,18.534,19.439Z" transform="translate(7.217 -3.648)" fill="#f5f5f5"/>
      </g>
    </g>
  </g>
</svg>
